<mxfile host="app.diagrams.net" agent="Mozilla/5.0 (Windows NT 10.0; Win64; x64) AppleWebKit/537.36 (KHTML, like Gecko) Chrome/136.0.0.0 Safari/537.36 Edg/136.0.0.0" version="27.0.3" pages="2">
  <diagram name="第 1 页" id="zdntz2478s2lCkeFTCFq">
    <mxGraphModel dx="873" dy="520" grid="1" gridSize="10" guides="1" tooltips="1" connect="1" arrows="1" fold="1" page="1" pageScale="1" pageWidth="827" pageHeight="1169" math="0" shadow="0">
      <root>
        <mxCell id="0" />
        <mxCell id="1" parent="0" />
        <mxCell id="17QydgVOFod0C8i1eIwQ-2" value="&lt;font style=&quot;font-size: 14px;&quot;&gt;会员信息&lt;/font&gt;" style="rounded=0;whiteSpace=wrap;html=1;" parent="1" vertex="1">
          <mxGeometry x="330" y="410" width="130" height="40" as="geometry" />
        </mxCell>
        <mxCell id="17QydgVOFod0C8i1eIwQ-3" value="会员昵称" style="ellipse;whiteSpace=wrap;html=1;" parent="1" vertex="1">
          <mxGeometry x="210" y="290" width="110" height="40" as="geometry" />
        </mxCell>
        <mxCell id="17QydgVOFod0C8i1eIwQ-4" value="会员账号" style="ellipse;whiteSpace=wrap;html=1;" parent="1" vertex="1">
          <mxGeometry x="320" y="270" width="110" height="40" as="geometry" />
        </mxCell>
        <mxCell id="17QydgVOFod0C8i1eIwQ-5" value="会员头像" style="ellipse;whiteSpace=wrap;html=1;" parent="1" vertex="1">
          <mxGeometry x="630" y="340" width="110" height="40" as="geometry" />
        </mxCell>
        <mxCell id="17QydgVOFod0C8i1eIwQ-6" value="性别" style="ellipse;whiteSpace=wrap;html=1;" parent="1" vertex="1">
          <mxGeometry x="120" y="320" width="110" height="40" as="geometry" />
        </mxCell>
        <mxCell id="17QydgVOFod0C8i1eIwQ-7" value="会员角色" style="ellipse;whiteSpace=wrap;html=1;" parent="1" vertex="1">
          <mxGeometry x="430" y="290" width="110" height="40" as="geometry" />
        </mxCell>
        <mxCell id="17QydgVOFod0C8i1eIwQ-8" value="密码" style="ellipse;whiteSpace=wrap;html=1;" parent="1" vertex="1">
          <mxGeometry x="540" y="310" width="110" height="40" as="geometry" />
        </mxCell>
        <mxCell id="17QydgVOFod0C8i1eIwQ-11" value="会员ID" style="ellipse;whiteSpace=wrap;html=1;" parent="1" vertex="1">
          <mxGeometry x="30" y="350" width="110" height="40" as="geometry" />
        </mxCell>
        <mxCell id="17QydgVOFod0C8i1eIwQ-14" value="" style="endArrow=none;html=1;rounded=0;exitX=0.5;exitY=0;exitDx=0;exitDy=0;" parent="1" source="17QydgVOFod0C8i1eIwQ-2" edge="1">
          <mxGeometry width="50" height="50" relative="1" as="geometry">
            <mxPoint x="90" y="420" as="sourcePoint" />
            <mxPoint x="140" y="370" as="targetPoint" />
          </mxGeometry>
        </mxCell>
        <mxCell id="17QydgVOFod0C8i1eIwQ-15" value="" style="endArrow=none;html=1;rounded=0;exitX=0.5;exitY=0;exitDx=0;exitDy=0;" parent="1" source="17QydgVOFod0C8i1eIwQ-2" edge="1">
          <mxGeometry width="50" height="50" relative="1" as="geometry">
            <mxPoint x="180" y="390" as="sourcePoint" />
            <mxPoint x="230" y="340" as="targetPoint" />
          </mxGeometry>
        </mxCell>
        <mxCell id="17QydgVOFod0C8i1eIwQ-16" value="" style="endArrow=none;html=1;rounded=0;exitX=0.5;exitY=0;exitDx=0;exitDy=0;" parent="1" source="17QydgVOFod0C8i1eIwQ-2" edge="1">
          <mxGeometry width="50" height="50" relative="1" as="geometry">
            <mxPoint x="260" y="370" as="sourcePoint" />
            <mxPoint x="310" y="320" as="targetPoint" />
          </mxGeometry>
        </mxCell>
        <mxCell id="17QydgVOFod0C8i1eIwQ-17" value="" style="endArrow=none;html=1;rounded=0;exitX=0.5;exitY=0;exitDx=0;exitDy=0;" parent="1" source="17QydgVOFod0C8i1eIwQ-2" edge="1">
          <mxGeometry width="50" height="50" relative="1" as="geometry">
            <mxPoint x="340" y="360" as="sourcePoint" />
            <mxPoint x="390" y="310" as="targetPoint" />
          </mxGeometry>
        </mxCell>
        <mxCell id="17QydgVOFod0C8i1eIwQ-18" value="" style="endArrow=none;html=1;rounded=0;exitX=0.5;exitY=0;exitDx=0;exitDy=0;" parent="1" source="17QydgVOFod0C8i1eIwQ-2" edge="1">
          <mxGeometry width="50" height="50" relative="1" as="geometry">
            <mxPoint x="390" y="410" as="sourcePoint" />
            <mxPoint x="500" y="330" as="targetPoint" />
          </mxGeometry>
        </mxCell>
        <mxCell id="17QydgVOFod0C8i1eIwQ-19" value="" style="endArrow=none;html=1;rounded=0;exitX=0.5;exitY=0;exitDx=0;exitDy=0;" parent="1" source="17QydgVOFod0C8i1eIwQ-2" edge="1">
          <mxGeometry width="50" height="50" relative="1" as="geometry">
            <mxPoint x="530" y="400" as="sourcePoint" />
            <mxPoint x="580" y="350" as="targetPoint" />
          </mxGeometry>
        </mxCell>
        <mxCell id="17QydgVOFod0C8i1eIwQ-20" value="" style="endArrow=none;html=1;rounded=0;" parent="1" edge="1">
          <mxGeometry width="50" height="50" relative="1" as="geometry">
            <mxPoint x="400" y="410" as="sourcePoint" />
            <mxPoint x="670" y="380" as="targetPoint" />
          </mxGeometry>
        </mxCell>
        <mxCell id="17QydgVOFod0C8i1eIwQ-21" value="&lt;font style=&quot;font-size: 14px;&quot;&gt;教练信息&lt;/font&gt;" style="rounded=0;whiteSpace=wrap;html=1;" parent="1" vertex="1">
          <mxGeometry x="359" y="650" width="130" height="40" as="geometry" />
        </mxCell>
        <mxCell id="17QydgVOFod0C8i1eIwQ-22" value="薪资" style="ellipse;whiteSpace=wrap;html=1;" parent="1" vertex="1">
          <mxGeometry x="239" y="530" width="110" height="40" as="geometry" />
        </mxCell>
        <mxCell id="17QydgVOFod0C8i1eIwQ-23" value="住址" style="ellipse;whiteSpace=wrap;html=1;" parent="1" vertex="1">
          <mxGeometry x="349" y="510" width="110" height="40" as="geometry" />
        </mxCell>
        <mxCell id="17QydgVOFod0C8i1eIwQ-24" value="教练头像" style="ellipse;whiteSpace=wrap;html=1;" parent="1" vertex="1">
          <mxGeometry x="659" y="580" width="110" height="40" as="geometry" />
        </mxCell>
        <mxCell id="17QydgVOFod0C8i1eIwQ-25" value="教练性别" style="ellipse;whiteSpace=wrap;html=1;" parent="1" vertex="1">
          <mxGeometry x="149" y="560" width="110" height="40" as="geometry" />
        </mxCell>
        <mxCell id="17QydgVOFod0C8i1eIwQ-26" value="入职日期" style="ellipse;whiteSpace=wrap;html=1;" parent="1" vertex="1">
          <mxGeometry x="459" y="530" width="110" height="40" as="geometry" />
        </mxCell>
        <mxCell id="17QydgVOFod0C8i1eIwQ-27" value="教授类型" style="ellipse;whiteSpace=wrap;html=1;" parent="1" vertex="1">
          <mxGeometry x="569" y="550" width="110" height="40" as="geometry" />
        </mxCell>
        <mxCell id="17QydgVOFod0C8i1eIwQ-28" value="教练ID" style="ellipse;whiteSpace=wrap;html=1;" parent="1" vertex="1">
          <mxGeometry x="59" y="590" width="110" height="40" as="geometry" />
        </mxCell>
        <mxCell id="17QydgVOFod0C8i1eIwQ-29" value="" style="endArrow=none;html=1;rounded=0;exitX=0.5;exitY=0;exitDx=0;exitDy=0;" parent="1" source="17QydgVOFod0C8i1eIwQ-21" edge="1">
          <mxGeometry width="50" height="50" relative="1" as="geometry">
            <mxPoint x="119" y="660" as="sourcePoint" />
            <mxPoint x="169" y="610" as="targetPoint" />
          </mxGeometry>
        </mxCell>
        <mxCell id="17QydgVOFod0C8i1eIwQ-30" value="" style="endArrow=none;html=1;rounded=0;exitX=0.5;exitY=0;exitDx=0;exitDy=0;" parent="1" source="17QydgVOFod0C8i1eIwQ-21" edge="1">
          <mxGeometry width="50" height="50" relative="1" as="geometry">
            <mxPoint x="209" y="630" as="sourcePoint" />
            <mxPoint x="259" y="580" as="targetPoint" />
          </mxGeometry>
        </mxCell>
        <mxCell id="17QydgVOFod0C8i1eIwQ-31" value="" style="endArrow=none;html=1;rounded=0;exitX=0.5;exitY=0;exitDx=0;exitDy=0;" parent="1" source="17QydgVOFod0C8i1eIwQ-21" edge="1">
          <mxGeometry width="50" height="50" relative="1" as="geometry">
            <mxPoint x="289" y="610" as="sourcePoint" />
            <mxPoint x="339" y="560" as="targetPoint" />
          </mxGeometry>
        </mxCell>
        <mxCell id="17QydgVOFod0C8i1eIwQ-32" value="" style="endArrow=none;html=1;rounded=0;exitX=0.5;exitY=0;exitDx=0;exitDy=0;" parent="1" source="17QydgVOFod0C8i1eIwQ-21" edge="1">
          <mxGeometry width="50" height="50" relative="1" as="geometry">
            <mxPoint x="369" y="600" as="sourcePoint" />
            <mxPoint x="419" y="550" as="targetPoint" />
          </mxGeometry>
        </mxCell>
        <mxCell id="17QydgVOFod0C8i1eIwQ-33" value="" style="endArrow=none;html=1;rounded=0;exitX=0.5;exitY=0;exitDx=0;exitDy=0;" parent="1" source="17QydgVOFod0C8i1eIwQ-21" edge="1">
          <mxGeometry width="50" height="50" relative="1" as="geometry">
            <mxPoint x="419" y="650" as="sourcePoint" />
            <mxPoint x="529" y="570" as="targetPoint" />
          </mxGeometry>
        </mxCell>
        <mxCell id="17QydgVOFod0C8i1eIwQ-34" value="" style="endArrow=none;html=1;rounded=0;exitX=0.5;exitY=0;exitDx=0;exitDy=0;" parent="1" source="17QydgVOFod0C8i1eIwQ-21" edge="1">
          <mxGeometry width="50" height="50" relative="1" as="geometry">
            <mxPoint x="559" y="640" as="sourcePoint" />
            <mxPoint x="609" y="590" as="targetPoint" />
          </mxGeometry>
        </mxCell>
        <mxCell id="17QydgVOFod0C8i1eIwQ-35" value="" style="endArrow=none;html=1;rounded=0;" parent="1" edge="1">
          <mxGeometry width="50" height="50" relative="1" as="geometry">
            <mxPoint x="429" y="650" as="sourcePoint" />
            <mxPoint x="699" y="620" as="targetPoint" />
          </mxGeometry>
        </mxCell>
        <mxCell id="svAXorbb0JacJAwmI3sZ-1" value="&lt;font style=&quot;font-size: 14px;&quot;&gt;课程信息&lt;/font&gt;" style="rounded=0;whiteSpace=wrap;html=1;" vertex="1" parent="1">
          <mxGeometry x="380" y="880" width="130" height="40" as="geometry" />
        </mxCell>
        <mxCell id="svAXorbb0JacJAwmI3sZ-2" value="课程描述" style="ellipse;whiteSpace=wrap;html=1;" vertex="1" parent="1">
          <mxGeometry x="260" y="760" width="110" height="40" as="geometry" />
        </mxCell>
        <mxCell id="svAXorbb0JacJAwmI3sZ-3" value="课程时长" style="ellipse;whiteSpace=wrap;html=1;" vertex="1" parent="1">
          <mxGeometry x="370" y="740" width="110" height="40" as="geometry" />
        </mxCell>
        <mxCell id="svAXorbb0JacJAwmI3sZ-4" value="课程图片" style="ellipse;whiteSpace=wrap;html=1;" vertex="1" parent="1">
          <mxGeometry x="680" y="810" width="110" height="40" as="geometry" />
        </mxCell>
        <mxCell id="svAXorbb0JacJAwmI3sZ-5" value="课程名称" style="ellipse;whiteSpace=wrap;html=1;" vertex="1" parent="1">
          <mxGeometry x="170" y="790" width="110" height="40" as="geometry" />
        </mxCell>
        <mxCell id="svAXorbb0JacJAwmI3sZ-6" value="课程类别ID" style="ellipse;whiteSpace=wrap;html=1;" vertex="1" parent="1">
          <mxGeometry x="480" y="760" width="110" height="40" as="geometry" />
        </mxCell>
        <mxCell id="svAXorbb0JacJAwmI3sZ-7" value="难度等级" style="ellipse;whiteSpace=wrap;html=1;" vertex="1" parent="1">
          <mxGeometry x="590" y="780" width="110" height="40" as="geometry" />
        </mxCell>
        <mxCell id="svAXorbb0JacJAwmI3sZ-8" value="课程ID" style="ellipse;whiteSpace=wrap;html=1;" vertex="1" parent="1">
          <mxGeometry x="80" y="820" width="110" height="40" as="geometry" />
        </mxCell>
        <mxCell id="svAXorbb0JacJAwmI3sZ-9" value="" style="endArrow=none;html=1;rounded=0;exitX=0.5;exitY=0;exitDx=0;exitDy=0;" edge="1" parent="1" source="svAXorbb0JacJAwmI3sZ-1">
          <mxGeometry width="50" height="50" relative="1" as="geometry">
            <mxPoint x="140" y="890" as="sourcePoint" />
            <mxPoint x="190" y="840" as="targetPoint" />
          </mxGeometry>
        </mxCell>
        <mxCell id="svAXorbb0JacJAwmI3sZ-10" value="" style="endArrow=none;html=1;rounded=0;exitX=0.5;exitY=0;exitDx=0;exitDy=0;" edge="1" parent="1" source="svAXorbb0JacJAwmI3sZ-1">
          <mxGeometry width="50" height="50" relative="1" as="geometry">
            <mxPoint x="230" y="860" as="sourcePoint" />
            <mxPoint x="280" y="810" as="targetPoint" />
          </mxGeometry>
        </mxCell>
        <mxCell id="svAXorbb0JacJAwmI3sZ-11" value="" style="endArrow=none;html=1;rounded=0;exitX=0.5;exitY=0;exitDx=0;exitDy=0;" edge="1" parent="1" source="svAXorbb0JacJAwmI3sZ-1">
          <mxGeometry width="50" height="50" relative="1" as="geometry">
            <mxPoint x="310" y="840" as="sourcePoint" />
            <mxPoint x="360" y="790" as="targetPoint" />
          </mxGeometry>
        </mxCell>
        <mxCell id="svAXorbb0JacJAwmI3sZ-12" value="" style="endArrow=none;html=1;rounded=0;exitX=0.5;exitY=0;exitDx=0;exitDy=0;" edge="1" parent="1" source="svAXorbb0JacJAwmI3sZ-1">
          <mxGeometry width="50" height="50" relative="1" as="geometry">
            <mxPoint x="390" y="830" as="sourcePoint" />
            <mxPoint x="440" y="780" as="targetPoint" />
          </mxGeometry>
        </mxCell>
        <mxCell id="svAXorbb0JacJAwmI3sZ-13" value="" style="endArrow=none;html=1;rounded=0;exitX=0.5;exitY=0;exitDx=0;exitDy=0;" edge="1" parent="1" source="svAXorbb0JacJAwmI3sZ-1">
          <mxGeometry width="50" height="50" relative="1" as="geometry">
            <mxPoint x="440" y="880" as="sourcePoint" />
            <mxPoint x="550" y="800" as="targetPoint" />
          </mxGeometry>
        </mxCell>
        <mxCell id="svAXorbb0JacJAwmI3sZ-14" value="" style="endArrow=none;html=1;rounded=0;exitX=0.5;exitY=0;exitDx=0;exitDy=0;" edge="1" parent="1" source="svAXorbb0JacJAwmI3sZ-1">
          <mxGeometry width="50" height="50" relative="1" as="geometry">
            <mxPoint x="580" y="870" as="sourcePoint" />
            <mxPoint x="630" y="820" as="targetPoint" />
          </mxGeometry>
        </mxCell>
        <mxCell id="svAXorbb0JacJAwmI3sZ-15" value="" style="endArrow=none;html=1;rounded=0;" edge="1" parent="1">
          <mxGeometry width="50" height="50" relative="1" as="geometry">
            <mxPoint x="450" y="880" as="sourcePoint" />
            <mxPoint x="720" y="850" as="targetPoint" />
          </mxGeometry>
        </mxCell>
        <mxCell id="svAXorbb0JacJAwmI3sZ-16" value="&lt;font style=&quot;font-size: 14px;&quot;&gt;课程类别信息&lt;/font&gt;" style="rounded=0;whiteSpace=wrap;html=1;" vertex="1" parent="1">
          <mxGeometry x="359" y="1090" width="130" height="40" as="geometry" />
        </mxCell>
        <mxCell id="svAXorbb0JacJAwmI3sZ-17" value="类别描述" style="ellipse;whiteSpace=wrap;html=1;" vertex="1" parent="1">
          <mxGeometry x="540" y="1000" width="110" height="40" as="geometry" />
        </mxCell>
        <mxCell id="svAXorbb0JacJAwmI3sZ-20" value="类别名称" style="ellipse;whiteSpace=wrap;html=1;" vertex="1" parent="1">
          <mxGeometry x="369" y="980" width="110" height="40" as="geometry" />
        </mxCell>
        <mxCell id="svAXorbb0JacJAwmI3sZ-23" value="类别ID" style="ellipse;whiteSpace=wrap;html=1;" vertex="1" parent="1">
          <mxGeometry x="170" y="1000" width="110" height="40" as="geometry" />
        </mxCell>
        <mxCell id="svAXorbb0JacJAwmI3sZ-24" value="" style="endArrow=none;html=1;rounded=0;exitX=0.5;exitY=0;exitDx=0;exitDy=0;entryX=0.5;entryY=1;entryDx=0;entryDy=0;" edge="1" parent="1" source="svAXorbb0JacJAwmI3sZ-16" target="svAXorbb0JacJAwmI3sZ-23">
          <mxGeometry width="50" height="50" relative="1" as="geometry">
            <mxPoint x="119" y="1100" as="sourcePoint" />
            <mxPoint x="169" y="1050" as="targetPoint" />
          </mxGeometry>
        </mxCell>
        <mxCell id="svAXorbb0JacJAwmI3sZ-26" value="" style="endArrow=none;html=1;rounded=0;exitX=0.5;exitY=0;exitDx=0;exitDy=0;entryX=0.5;entryY=1;entryDx=0;entryDy=0;" edge="1" parent="1" source="svAXorbb0JacJAwmI3sZ-16" target="svAXorbb0JacJAwmI3sZ-17">
          <mxGeometry width="50" height="50" relative="1" as="geometry">
            <mxPoint x="289" y="1050" as="sourcePoint" />
            <mxPoint x="339" y="1000" as="targetPoint" />
          </mxGeometry>
        </mxCell>
        <mxCell id="svAXorbb0JacJAwmI3sZ-31" value="" style="endArrow=none;html=1;rounded=0;exitX=0.5;exitY=0;exitDx=0;exitDy=0;entryX=0.5;entryY=1;entryDx=0;entryDy=0;" edge="1" parent="1" source="svAXorbb0JacJAwmI3sZ-16" target="svAXorbb0JacJAwmI3sZ-20">
          <mxGeometry width="50" height="50" relative="1" as="geometry">
            <mxPoint x="390" y="1040" as="sourcePoint" />
            <mxPoint x="440" y="990" as="targetPoint" />
          </mxGeometry>
        </mxCell>
        <mxCell id="svAXorbb0JacJAwmI3sZ-32" value="&lt;font style=&quot;font-size: 14px;&quot;&gt;课程排期信息&lt;/font&gt;" style="rounded=0;whiteSpace=wrap;html=1;" vertex="1" parent="1">
          <mxGeometry x="359" y="1350" width="130" height="40" as="geometry" />
        </mxCell>
        <mxCell id="svAXorbb0JacJAwmI3sZ-33" value="教练ID" style="ellipse;whiteSpace=wrap;html=1;" vertex="1" parent="1">
          <mxGeometry x="239" y="1230" width="110" height="40" as="geometry" />
        </mxCell>
        <mxCell id="svAXorbb0JacJAwmI3sZ-34" value="最大参与人数" style="ellipse;whiteSpace=wrap;html=1;" vertex="1" parent="1">
          <mxGeometry x="349" y="1210" width="110" height="40" as="geometry" />
        </mxCell>
        <mxCell id="svAXorbb0JacJAwmI3sZ-35" value="状态" style="ellipse;whiteSpace=wrap;html=1;" vertex="1" parent="1">
          <mxGeometry x="659" y="1280" width="110" height="40" as="geometry" />
        </mxCell>
        <mxCell id="svAXorbb0JacJAwmI3sZ-36" value="课程ID" style="ellipse;whiteSpace=wrap;html=1;" vertex="1" parent="1">
          <mxGeometry x="149" y="1260" width="110" height="40" as="geometry" />
        </mxCell>
        <mxCell id="svAXorbb0JacJAwmI3sZ-37" value="当前参与人数" style="ellipse;whiteSpace=wrap;html=1;" vertex="1" parent="1">
          <mxGeometry x="459" y="1230" width="110" height="40" as="geometry" />
        </mxCell>
        <mxCell id="svAXorbb0JacJAwmI3sZ-38" value="教室编号" style="ellipse;whiteSpace=wrap;html=1;" vertex="1" parent="1">
          <mxGeometry x="569" y="1250" width="110" height="40" as="geometry" />
        </mxCell>
        <mxCell id="svAXorbb0JacJAwmI3sZ-39" value="排期ID" style="ellipse;whiteSpace=wrap;html=1;" vertex="1" parent="1">
          <mxGeometry x="59" y="1290" width="110" height="40" as="geometry" />
        </mxCell>
        <mxCell id="svAXorbb0JacJAwmI3sZ-40" value="" style="endArrow=none;html=1;rounded=0;exitX=0.5;exitY=0;exitDx=0;exitDy=0;" edge="1" parent="1" source="svAXorbb0JacJAwmI3sZ-32">
          <mxGeometry width="50" height="50" relative="1" as="geometry">
            <mxPoint x="119" y="1360" as="sourcePoint" />
            <mxPoint x="169" y="1310" as="targetPoint" />
          </mxGeometry>
        </mxCell>
        <mxCell id="svAXorbb0JacJAwmI3sZ-41" value="" style="endArrow=none;html=1;rounded=0;exitX=0.5;exitY=0;exitDx=0;exitDy=0;" edge="1" parent="1" source="svAXorbb0JacJAwmI3sZ-32">
          <mxGeometry width="50" height="50" relative="1" as="geometry">
            <mxPoint x="209" y="1330" as="sourcePoint" />
            <mxPoint x="259" y="1280" as="targetPoint" />
          </mxGeometry>
        </mxCell>
        <mxCell id="svAXorbb0JacJAwmI3sZ-42" value="" style="endArrow=none;html=1;rounded=0;exitX=0.5;exitY=0;exitDx=0;exitDy=0;" edge="1" parent="1" source="svAXorbb0JacJAwmI3sZ-32">
          <mxGeometry width="50" height="50" relative="1" as="geometry">
            <mxPoint x="289" y="1310" as="sourcePoint" />
            <mxPoint x="339" y="1260" as="targetPoint" />
          </mxGeometry>
        </mxCell>
        <mxCell id="svAXorbb0JacJAwmI3sZ-43" value="" style="endArrow=none;html=1;rounded=0;exitX=0.5;exitY=0;exitDx=0;exitDy=0;" edge="1" parent="1" source="svAXorbb0JacJAwmI3sZ-32">
          <mxGeometry width="50" height="50" relative="1" as="geometry">
            <mxPoint x="369" y="1300" as="sourcePoint" />
            <mxPoint x="419" y="1250" as="targetPoint" />
          </mxGeometry>
        </mxCell>
        <mxCell id="svAXorbb0JacJAwmI3sZ-44" value="" style="endArrow=none;html=1;rounded=0;exitX=0.5;exitY=0;exitDx=0;exitDy=0;" edge="1" parent="1" source="svAXorbb0JacJAwmI3sZ-32">
          <mxGeometry width="50" height="50" relative="1" as="geometry">
            <mxPoint x="419" y="1350" as="sourcePoint" />
            <mxPoint x="529" y="1270" as="targetPoint" />
          </mxGeometry>
        </mxCell>
        <mxCell id="svAXorbb0JacJAwmI3sZ-45" value="" style="endArrow=none;html=1;rounded=0;exitX=0.5;exitY=0;exitDx=0;exitDy=0;" edge="1" parent="1" source="svAXorbb0JacJAwmI3sZ-32">
          <mxGeometry width="50" height="50" relative="1" as="geometry">
            <mxPoint x="559" y="1340" as="sourcePoint" />
            <mxPoint x="609" y="1290" as="targetPoint" />
          </mxGeometry>
        </mxCell>
        <mxCell id="svAXorbb0JacJAwmI3sZ-46" value="" style="endArrow=none;html=1;rounded=0;" edge="1" parent="1">
          <mxGeometry width="50" height="50" relative="1" as="geometry">
            <mxPoint x="429" y="1350" as="sourcePoint" />
            <mxPoint x="699" y="1320" as="targetPoint" />
          </mxGeometry>
        </mxCell>
        <mxCell id="svAXorbb0JacJAwmI3sZ-62" value="&lt;font style=&quot;font-size: 14px;&quot;&gt;商品信息&lt;/font&gt;" style="rounded=0;whiteSpace=wrap;html=1;" vertex="1" parent="1">
          <mxGeometry x="370" y="1650" width="130" height="40" as="geometry" />
        </mxCell>
        <mxCell id="svAXorbb0JacJAwmI3sZ-64" value="销售单价" style="ellipse;whiteSpace=wrap;html=1;" vertex="1" parent="1">
          <mxGeometry x="380" y="1550" width="110" height="40" as="geometry" />
        </mxCell>
        <mxCell id="svAXorbb0JacJAwmI3sZ-65" value="图片" style="ellipse;whiteSpace=wrap;html=1;" vertex="1" parent="1">
          <mxGeometry x="569" y="1680" width="110" height="40" as="geometry" />
        </mxCell>
        <mxCell id="svAXorbb0JacJAwmI3sZ-67" value="当前库存" style="ellipse;whiteSpace=wrap;html=1;" vertex="1" parent="1">
          <mxGeometry x="530" y="1740" width="110" height="40" as="geometry" />
        </mxCell>
        <mxCell id="svAXorbb0JacJAwmI3sZ-68" value="商品备注" style="ellipse;whiteSpace=wrap;html=1;" vertex="1" parent="1">
          <mxGeometry x="560" y="1610" width="110" height="40" as="geometry" />
        </mxCell>
        <mxCell id="svAXorbb0JacJAwmI3sZ-69" value="商品ID" style="ellipse;whiteSpace=wrap;html=1;" vertex="1" parent="1">
          <mxGeometry x="249" y="1730" width="110" height="40" as="geometry" />
        </mxCell>
        <mxCell id="svAXorbb0JacJAwmI3sZ-70" value="" style="endArrow=none;html=1;rounded=0;exitX=0;exitY=0.5;exitDx=0;exitDy=0;entryX=1;entryY=0.5;entryDx=0;entryDy=0;" edge="1" parent="1" source="svAXorbb0JacJAwmI3sZ-62" target="svAXorbb0JacJAwmI3sZ-78">
          <mxGeometry width="50" height="50" relative="1" as="geometry">
            <mxPoint x="129" y="1630" as="sourcePoint" />
            <mxPoint x="179" y="1580" as="targetPoint" />
          </mxGeometry>
        </mxCell>
        <mxCell id="svAXorbb0JacJAwmI3sZ-73" value="" style="endArrow=none;html=1;rounded=0;exitX=0.5;exitY=0;exitDx=0;exitDy=0;entryX=0.5;entryY=1;entryDx=0;entryDy=0;" edge="1" parent="1" source="svAXorbb0JacJAwmI3sZ-62" target="svAXorbb0JacJAwmI3sZ-64">
          <mxGeometry width="50" height="50" relative="1" as="geometry">
            <mxPoint x="379" y="1570" as="sourcePoint" />
            <mxPoint x="429" y="1520" as="targetPoint" />
          </mxGeometry>
        </mxCell>
        <mxCell id="svAXorbb0JacJAwmI3sZ-75" value="" style="endArrow=none;html=1;rounded=0;exitX=1;exitY=0.5;exitDx=0;exitDy=0;entryX=0;entryY=0.5;entryDx=0;entryDy=0;" edge="1" parent="1" source="svAXorbb0JacJAwmI3sZ-62" target="svAXorbb0JacJAwmI3sZ-68">
          <mxGeometry width="50" height="50" relative="1" as="geometry">
            <mxPoint x="569" y="1610" as="sourcePoint" />
            <mxPoint x="619" y="1560" as="targetPoint" />
          </mxGeometry>
        </mxCell>
        <mxCell id="svAXorbb0JacJAwmI3sZ-76" value="" style="endArrow=none;html=1;rounded=0;exitX=0.5;exitY=1;exitDx=0;exitDy=0;entryX=0.5;entryY=0;entryDx=0;entryDy=0;" edge="1" parent="1" source="svAXorbb0JacJAwmI3sZ-62" target="svAXorbb0JacJAwmI3sZ-77">
          <mxGeometry width="50" height="50" relative="1" as="geometry">
            <mxPoint x="640" y="1580" as="sourcePoint" />
            <mxPoint x="910" y="1550" as="targetPoint" />
          </mxGeometry>
        </mxCell>
        <mxCell id="svAXorbb0JacJAwmI3sZ-77" value="商品特点" style="ellipse;whiteSpace=wrap;html=1;" vertex="1" parent="1">
          <mxGeometry x="380" y="1740" width="110" height="40" as="geometry" />
        </mxCell>
        <mxCell id="svAXorbb0JacJAwmI3sZ-78" value="规格参数" style="ellipse;whiteSpace=wrap;html=1;" vertex="1" parent="1">
          <mxGeometry x="180" y="1610" width="110" height="40" as="geometry" />
        </mxCell>
        <mxCell id="svAXorbb0JacJAwmI3sZ-79" value="商品类别" style="ellipse;whiteSpace=wrap;html=1;" vertex="1" parent="1">
          <mxGeometry x="180" y="1670" width="110" height="40" as="geometry" />
        </mxCell>
        <mxCell id="svAXorbb0JacJAwmI3sZ-80" value="" style="endArrow=none;html=1;rounded=0;exitX=0.5;exitY=0;exitDx=0;exitDy=0;" edge="1" parent="1" source="svAXorbb0JacJAwmI3sZ-62" target="svAXorbb0JacJAwmI3sZ-63">
          <mxGeometry width="50" height="50" relative="1" as="geometry">
            <mxPoint x="435" y="1650" as="sourcePoint" />
            <mxPoint x="349" y="1530" as="targetPoint" />
          </mxGeometry>
        </mxCell>
        <mxCell id="svAXorbb0JacJAwmI3sZ-63" value="进货单价" style="ellipse;whiteSpace=wrap;html=1;" vertex="1" parent="1">
          <mxGeometry x="490" y="1570" width="110" height="40" as="geometry" />
        </mxCell>
        <mxCell id="svAXorbb0JacJAwmI3sZ-81" value="" style="endArrow=none;html=1;rounded=0;exitX=0.5;exitY=0;exitDx=0;exitDy=0;" edge="1" parent="1" source="svAXorbb0JacJAwmI3sZ-62" target="svAXorbb0JacJAwmI3sZ-66">
          <mxGeometry width="50" height="50" relative="1" as="geometry">
            <mxPoint x="435" y="1650" as="sourcePoint" />
            <mxPoint x="269" y="1550" as="targetPoint" />
          </mxGeometry>
        </mxCell>
        <mxCell id="svAXorbb0JacJAwmI3sZ-66" value="商品名称" style="ellipse;whiteSpace=wrap;html=1;" vertex="1" parent="1">
          <mxGeometry x="260" y="1570" width="110" height="40" as="geometry" />
        </mxCell>
        <mxCell id="svAXorbb0JacJAwmI3sZ-84" value="" style="endArrow=none;html=1;rounded=0;exitX=0;exitY=0.5;exitDx=0;exitDy=0;entryX=1;entryY=0.5;entryDx=0;entryDy=0;" edge="1" parent="1" source="svAXorbb0JacJAwmI3sZ-62" target="svAXorbb0JacJAwmI3sZ-79">
          <mxGeometry width="50" height="50" relative="1" as="geometry">
            <mxPoint x="445" y="1660" as="sourcePoint" />
            <mxPoint x="300" y="1640" as="targetPoint" />
          </mxGeometry>
        </mxCell>
        <mxCell id="svAXorbb0JacJAwmI3sZ-85" value="" style="endArrow=none;html=1;rounded=0;exitX=1;exitY=0.5;exitDx=0;exitDy=0;entryX=0;entryY=0.5;entryDx=0;entryDy=0;" edge="1" parent="1" source="svAXorbb0JacJAwmI3sZ-62" target="svAXorbb0JacJAwmI3sZ-65">
          <mxGeometry width="50" height="50" relative="1" as="geometry">
            <mxPoint x="455" y="1670" as="sourcePoint" />
            <mxPoint x="310" y="1650" as="targetPoint" />
          </mxGeometry>
        </mxCell>
        <mxCell id="svAXorbb0JacJAwmI3sZ-86" value="" style="endArrow=none;html=1;rounded=0;exitX=0.5;exitY=1;exitDx=0;exitDy=0;entryX=0;entryY=0.5;entryDx=0;entryDy=0;" edge="1" parent="1" source="svAXorbb0JacJAwmI3sZ-62" target="svAXorbb0JacJAwmI3sZ-67">
          <mxGeometry width="50" height="50" relative="1" as="geometry">
            <mxPoint x="445" y="1700" as="sourcePoint" />
            <mxPoint x="445" y="1750" as="targetPoint" />
          </mxGeometry>
        </mxCell>
        <mxCell id="svAXorbb0JacJAwmI3sZ-87" value="" style="endArrow=none;html=1;rounded=0;exitX=0.5;exitY=1;exitDx=0;exitDy=0;entryX=0.5;entryY=0;entryDx=0;entryDy=0;" edge="1" parent="1" source="svAXorbb0JacJAwmI3sZ-62" target="svAXorbb0JacJAwmI3sZ-69">
          <mxGeometry width="50" height="50" relative="1" as="geometry">
            <mxPoint x="455" y="1710" as="sourcePoint" />
            <mxPoint x="455" y="1760" as="targetPoint" />
          </mxGeometry>
        </mxCell>
        <mxCell id="svAXorbb0JacJAwmI3sZ-88" value="&lt;font style=&quot;font-size: 14px;&quot;&gt;商品类别信息&lt;/font&gt;" style="rounded=0;whiteSpace=wrap;html=1;" vertex="1" parent="1">
          <mxGeometry x="344" y="2000" width="130" height="40" as="geometry" />
        </mxCell>
        <mxCell id="svAXorbb0JacJAwmI3sZ-89" value="类别描述" style="ellipse;whiteSpace=wrap;html=1;" vertex="1" parent="1">
          <mxGeometry x="459" y="1910" width="110" height="40" as="geometry" />
        </mxCell>
        <mxCell id="svAXorbb0JacJAwmI3sZ-90" value="类别名称" style="ellipse;whiteSpace=wrap;html=1;" vertex="1" parent="1">
          <mxGeometry x="354" y="1880" width="110" height="40" as="geometry" />
        </mxCell>
        <mxCell id="svAXorbb0JacJAwmI3sZ-91" value="类别ID" style="ellipse;whiteSpace=wrap;html=1;" vertex="1" parent="1">
          <mxGeometry x="149" y="1930" width="110" height="40" as="geometry" />
        </mxCell>
        <mxCell id="svAXorbb0JacJAwmI3sZ-92" value="" style="endArrow=none;html=1;rounded=0;exitX=0.5;exitY=0;exitDx=0;exitDy=0;entryX=1;entryY=1;entryDx=0;entryDy=0;" edge="1" parent="1" source="svAXorbb0JacJAwmI3sZ-88" target="svAXorbb0JacJAwmI3sZ-91">
          <mxGeometry width="50" height="50" relative="1" as="geometry">
            <mxPoint x="104" y="2010" as="sourcePoint" />
            <mxPoint x="154" y="1960" as="targetPoint" />
          </mxGeometry>
        </mxCell>
        <mxCell id="svAXorbb0JacJAwmI3sZ-93" value="" style="endArrow=none;html=1;rounded=0;exitX=0.5;exitY=0;exitDx=0;exitDy=0;entryX=0.5;entryY=1;entryDx=0;entryDy=0;" edge="1" parent="1" source="svAXorbb0JacJAwmI3sZ-88" target="svAXorbb0JacJAwmI3sZ-89">
          <mxGeometry width="50" height="50" relative="1" as="geometry">
            <mxPoint x="274" y="1960" as="sourcePoint" />
            <mxPoint x="324" y="1910" as="targetPoint" />
          </mxGeometry>
        </mxCell>
        <mxCell id="svAXorbb0JacJAwmI3sZ-94" value="" style="endArrow=none;html=1;rounded=0;exitX=0.5;exitY=0;exitDx=0;exitDy=0;entryX=0.5;entryY=1;entryDx=0;entryDy=0;" edge="1" parent="1" source="svAXorbb0JacJAwmI3sZ-88" target="svAXorbb0JacJAwmI3sZ-90">
          <mxGeometry width="50" height="50" relative="1" as="geometry">
            <mxPoint x="375" y="1950" as="sourcePoint" />
            <mxPoint x="425" y="1900" as="targetPoint" />
          </mxGeometry>
        </mxCell>
        <mxCell id="svAXorbb0JacJAwmI3sZ-95" value="类别图标" style="ellipse;whiteSpace=wrap;html=1;" vertex="1" parent="1">
          <mxGeometry x="259" y="1910" width="110" height="40" as="geometry" />
        </mxCell>
        <mxCell id="svAXorbb0JacJAwmI3sZ-96" value="类别图片" style="ellipse;whiteSpace=wrap;html=1;" vertex="1" parent="1">
          <mxGeometry x="570" y="1930" width="110" height="40" as="geometry" />
        </mxCell>
        <mxCell id="svAXorbb0JacJAwmI3sZ-97" value="" style="endArrow=none;html=1;rounded=0;entryX=0.5;entryY=1;entryDx=0;entryDy=0;" edge="1" parent="1" target="svAXorbb0JacJAwmI3sZ-95">
          <mxGeometry width="50" height="50" relative="1" as="geometry">
            <mxPoint x="410" y="2000" as="sourcePoint" />
            <mxPoint x="419" y="1930" as="targetPoint" />
          </mxGeometry>
        </mxCell>
        <mxCell id="svAXorbb0JacJAwmI3sZ-99" value="" style="endArrow=none;html=1;rounded=0;exitX=0.5;exitY=0;exitDx=0;exitDy=0;entryX=0;entryY=1;entryDx=0;entryDy=0;" edge="1" parent="1" source="svAXorbb0JacJAwmI3sZ-88" target="svAXorbb0JacJAwmI3sZ-96">
          <mxGeometry width="50" height="50" relative="1" as="geometry">
            <mxPoint x="420" y="2010" as="sourcePoint" />
            <mxPoint x="576" y="1960" as="targetPoint" />
          </mxGeometry>
        </mxCell>
        <mxCell id="svAXorbb0JacJAwmI3sZ-100" value="&lt;font style=&quot;font-size: 14px;&quot;&gt;商品销售信息&lt;/font&gt;" style="rounded=0;whiteSpace=wrap;html=1;" vertex="1" parent="1">
          <mxGeometry x="354.5" y="2190" width="130" height="40" as="geometry" />
        </mxCell>
        <mxCell id="svAXorbb0JacJAwmI3sZ-101" value="成交价格" style="ellipse;whiteSpace=wrap;html=1;" vertex="1" parent="1">
          <mxGeometry x="469.5" y="2100" width="110" height="40" as="geometry" />
        </mxCell>
        <mxCell id="svAXorbb0JacJAwmI3sZ-102" value="购买数量" style="ellipse;whiteSpace=wrap;html=1;" vertex="1" parent="1">
          <mxGeometry x="364.5" y="2070" width="110" height="40" as="geometry" />
        </mxCell>
        <mxCell id="svAXorbb0JacJAwmI3sZ-103" value="商品ID" style="ellipse;whiteSpace=wrap;html=1;" vertex="1" parent="1">
          <mxGeometry x="159.5" y="2120" width="110" height="40" as="geometry" />
        </mxCell>
        <mxCell id="svAXorbb0JacJAwmI3sZ-104" value="" style="endArrow=none;html=1;rounded=0;exitX=0.5;exitY=0;exitDx=0;exitDy=0;entryX=1;entryY=1;entryDx=0;entryDy=0;" edge="1" parent="1" source="svAXorbb0JacJAwmI3sZ-100" target="svAXorbb0JacJAwmI3sZ-103">
          <mxGeometry width="50" height="50" relative="1" as="geometry">
            <mxPoint x="114.5" y="2200" as="sourcePoint" />
            <mxPoint x="164.5" y="2150" as="targetPoint" />
          </mxGeometry>
        </mxCell>
        <mxCell id="svAXorbb0JacJAwmI3sZ-105" value="" style="endArrow=none;html=1;rounded=0;exitX=0.5;exitY=0;exitDx=0;exitDy=0;entryX=0.5;entryY=1;entryDx=0;entryDy=0;" edge="1" parent="1" source="svAXorbb0JacJAwmI3sZ-100" target="svAXorbb0JacJAwmI3sZ-101">
          <mxGeometry width="50" height="50" relative="1" as="geometry">
            <mxPoint x="284.5" y="2150" as="sourcePoint" />
            <mxPoint x="334.5" y="2100" as="targetPoint" />
          </mxGeometry>
        </mxCell>
        <mxCell id="svAXorbb0JacJAwmI3sZ-106" value="" style="endArrow=none;html=1;rounded=0;exitX=0.5;exitY=0;exitDx=0;exitDy=0;entryX=0.5;entryY=1;entryDx=0;entryDy=0;" edge="1" parent="1" source="svAXorbb0JacJAwmI3sZ-100" target="svAXorbb0JacJAwmI3sZ-102">
          <mxGeometry width="50" height="50" relative="1" as="geometry">
            <mxPoint x="385.5" y="2140" as="sourcePoint" />
            <mxPoint x="435.5" y="2090" as="targetPoint" />
          </mxGeometry>
        </mxCell>
        <mxCell id="svAXorbb0JacJAwmI3sZ-107" value="会员ID" style="ellipse;whiteSpace=wrap;html=1;" vertex="1" parent="1">
          <mxGeometry x="269.5" y="2100" width="110" height="40" as="geometry" />
        </mxCell>
        <mxCell id="svAXorbb0JacJAwmI3sZ-108" value="销售ID" style="ellipse;whiteSpace=wrap;html=1;" vertex="1" parent="1">
          <mxGeometry x="580.5" y="2120" width="110" height="40" as="geometry" />
        </mxCell>
        <mxCell id="svAXorbb0JacJAwmI3sZ-109" value="" style="endArrow=none;html=1;rounded=0;entryX=0.5;entryY=1;entryDx=0;entryDy=0;" edge="1" parent="1" target="svAXorbb0JacJAwmI3sZ-107">
          <mxGeometry width="50" height="50" relative="1" as="geometry">
            <mxPoint x="420.5" y="2190" as="sourcePoint" />
            <mxPoint x="429.5" y="2120" as="targetPoint" />
          </mxGeometry>
        </mxCell>
        <mxCell id="svAXorbb0JacJAwmI3sZ-110" value="" style="endArrow=none;html=1;rounded=0;exitX=0.5;exitY=0;exitDx=0;exitDy=0;entryX=0;entryY=1;entryDx=0;entryDy=0;" edge="1" parent="1" source="svAXorbb0JacJAwmI3sZ-100" target="svAXorbb0JacJAwmI3sZ-108">
          <mxGeometry width="50" height="50" relative="1" as="geometry">
            <mxPoint x="430.5" y="2200" as="sourcePoint" />
            <mxPoint x="586.5" y="2150" as="targetPoint" />
          </mxGeometry>
        </mxCell>
        <mxCell id="svAXorbb0JacJAwmI3sZ-111" value="&lt;font style=&quot;font-size: 14px;&quot;&gt;器械类别信息&lt;/font&gt;" style="rounded=0;whiteSpace=wrap;html=1;" vertex="1" parent="1">
          <mxGeometry x="353.5" y="2430" width="130" height="40" as="geometry" />
        </mxCell>
        <mxCell id="svAXorbb0JacJAwmI3sZ-112" value="类别描述" style="ellipse;whiteSpace=wrap;html=1;" vertex="1" parent="1">
          <mxGeometry x="468.5" y="2340" width="110" height="40" as="geometry" />
        </mxCell>
        <mxCell id="svAXorbb0JacJAwmI3sZ-113" value="类别名称" style="ellipse;whiteSpace=wrap;html=1;" vertex="1" parent="1">
          <mxGeometry x="363.5" y="2310" width="110" height="40" as="geometry" />
        </mxCell>
        <mxCell id="svAXorbb0JacJAwmI3sZ-114" value="类别ID" style="ellipse;whiteSpace=wrap;html=1;" vertex="1" parent="1">
          <mxGeometry x="158.5" y="2360" width="110" height="40" as="geometry" />
        </mxCell>
        <mxCell id="svAXorbb0JacJAwmI3sZ-115" value="" style="endArrow=none;html=1;rounded=0;exitX=0.5;exitY=0;exitDx=0;exitDy=0;entryX=1;entryY=1;entryDx=0;entryDy=0;" edge="1" parent="1" source="svAXorbb0JacJAwmI3sZ-111" target="svAXorbb0JacJAwmI3sZ-114">
          <mxGeometry width="50" height="50" relative="1" as="geometry">
            <mxPoint x="113.5" y="2440" as="sourcePoint" />
            <mxPoint x="163.5" y="2390" as="targetPoint" />
          </mxGeometry>
        </mxCell>
        <mxCell id="svAXorbb0JacJAwmI3sZ-116" value="" style="endArrow=none;html=1;rounded=0;exitX=0.5;exitY=0;exitDx=0;exitDy=0;entryX=0.5;entryY=1;entryDx=0;entryDy=0;" edge="1" parent="1" source="svAXorbb0JacJAwmI3sZ-111" target="svAXorbb0JacJAwmI3sZ-112">
          <mxGeometry width="50" height="50" relative="1" as="geometry">
            <mxPoint x="283.5" y="2390" as="sourcePoint" />
            <mxPoint x="333.5" y="2340" as="targetPoint" />
          </mxGeometry>
        </mxCell>
        <mxCell id="svAXorbb0JacJAwmI3sZ-117" value="" style="endArrow=none;html=1;rounded=0;exitX=0.5;exitY=0;exitDx=0;exitDy=0;entryX=0.5;entryY=1;entryDx=0;entryDy=0;" edge="1" parent="1" source="svAXorbb0JacJAwmI3sZ-111" target="svAXorbb0JacJAwmI3sZ-113">
          <mxGeometry width="50" height="50" relative="1" as="geometry">
            <mxPoint x="384.5" y="2380" as="sourcePoint" />
            <mxPoint x="434.5" y="2330" as="targetPoint" />
          </mxGeometry>
        </mxCell>
        <mxCell id="svAXorbb0JacJAwmI3sZ-118" value="类别图标" style="ellipse;whiteSpace=wrap;html=1;" vertex="1" parent="1">
          <mxGeometry x="268.5" y="2340" width="110" height="40" as="geometry" />
        </mxCell>
        <mxCell id="svAXorbb0JacJAwmI3sZ-119" value="类别图片" style="ellipse;whiteSpace=wrap;html=1;" vertex="1" parent="1">
          <mxGeometry x="579.5" y="2360" width="110" height="40" as="geometry" />
        </mxCell>
        <mxCell id="svAXorbb0JacJAwmI3sZ-120" value="" style="endArrow=none;html=1;rounded=0;entryX=0.5;entryY=1;entryDx=0;entryDy=0;" edge="1" parent="1" target="svAXorbb0JacJAwmI3sZ-118">
          <mxGeometry width="50" height="50" relative="1" as="geometry">
            <mxPoint x="419.5" y="2430" as="sourcePoint" />
            <mxPoint x="428.5" y="2360" as="targetPoint" />
          </mxGeometry>
        </mxCell>
        <mxCell id="svAXorbb0JacJAwmI3sZ-121" value="" style="endArrow=none;html=1;rounded=0;exitX=0.5;exitY=0;exitDx=0;exitDy=0;entryX=0;entryY=1;entryDx=0;entryDy=0;" edge="1" parent="1" source="svAXorbb0JacJAwmI3sZ-111" target="svAXorbb0JacJAwmI3sZ-119">
          <mxGeometry width="50" height="50" relative="1" as="geometry">
            <mxPoint x="429.5" y="2440" as="sourcePoint" />
            <mxPoint x="585.5" y="2390" as="targetPoint" />
          </mxGeometry>
        </mxCell>
        <mxCell id="svAXorbb0JacJAwmI3sZ-122" value="&lt;font style=&quot;font-size: 14px;&quot;&gt;器械信息&lt;/font&gt;" style="rounded=0;whiteSpace=wrap;html=1;" vertex="1" parent="1">
          <mxGeometry x="354" y="2630" width="130" height="40" as="geometry" />
        </mxCell>
        <mxCell id="svAXorbb0JacJAwmI3sZ-123" value="是否首页推荐" style="ellipse;whiteSpace=wrap;html=1;" vertex="1" parent="1">
          <mxGeometry x="364" y="2530" width="110" height="40" as="geometry" />
        </mxCell>
        <mxCell id="svAXorbb0JacJAwmI3sZ-124" value="主图" style="ellipse;whiteSpace=wrap;html=1;" vertex="1" parent="1">
          <mxGeometry x="553" y="2660" width="110" height="40" as="geometry" />
        </mxCell>
        <mxCell id="svAXorbb0JacJAwmI3sZ-125" value="轮播图" style="ellipse;whiteSpace=wrap;html=1;" vertex="1" parent="1">
          <mxGeometry x="514" y="2720" width="110" height="40" as="geometry" />
        </mxCell>
        <mxCell id="svAXorbb0JacJAwmI3sZ-126" value="简短描述" style="ellipse;whiteSpace=wrap;html=1;" vertex="1" parent="1">
          <mxGeometry x="544" y="2590" width="110" height="40" as="geometry" />
        </mxCell>
        <mxCell id="svAXorbb0JacJAwmI3sZ-127" value="器械ID" style="ellipse;whiteSpace=wrap;html=1;" vertex="1" parent="1">
          <mxGeometry x="233" y="2710" width="110" height="40" as="geometry" />
        </mxCell>
        <mxCell id="svAXorbb0JacJAwmI3sZ-128" value="" style="endArrow=none;html=1;rounded=0;exitX=0;exitY=0.5;exitDx=0;exitDy=0;entryX=1;entryY=0.5;entryDx=0;entryDy=0;" edge="1" parent="1" source="svAXorbb0JacJAwmI3sZ-122" target="svAXorbb0JacJAwmI3sZ-133">
          <mxGeometry width="50" height="50" relative="1" as="geometry">
            <mxPoint x="113" y="2610" as="sourcePoint" />
            <mxPoint x="163" y="2560" as="targetPoint" />
          </mxGeometry>
        </mxCell>
        <mxCell id="svAXorbb0JacJAwmI3sZ-129" value="" style="endArrow=none;html=1;rounded=0;exitX=0.5;exitY=0;exitDx=0;exitDy=0;entryX=0.5;entryY=1;entryDx=0;entryDy=0;" edge="1" parent="1" source="svAXorbb0JacJAwmI3sZ-122" target="svAXorbb0JacJAwmI3sZ-123">
          <mxGeometry width="50" height="50" relative="1" as="geometry">
            <mxPoint x="363" y="2550" as="sourcePoint" />
            <mxPoint x="413" y="2500" as="targetPoint" />
          </mxGeometry>
        </mxCell>
        <mxCell id="svAXorbb0JacJAwmI3sZ-130" value="" style="endArrow=none;html=1;rounded=0;exitX=1;exitY=0.5;exitDx=0;exitDy=0;entryX=0;entryY=0.5;entryDx=0;entryDy=0;" edge="1" parent="1" source="svAXorbb0JacJAwmI3sZ-122" target="svAXorbb0JacJAwmI3sZ-126">
          <mxGeometry width="50" height="50" relative="1" as="geometry">
            <mxPoint x="553" y="2590" as="sourcePoint" />
            <mxPoint x="603" y="2540" as="targetPoint" />
          </mxGeometry>
        </mxCell>
        <mxCell id="svAXorbb0JacJAwmI3sZ-131" value="" style="endArrow=none;html=1;rounded=0;exitX=0.5;exitY=1;exitDx=0;exitDy=0;entryX=0.5;entryY=0;entryDx=0;entryDy=0;" edge="1" parent="1" source="svAXorbb0JacJAwmI3sZ-122" target="svAXorbb0JacJAwmI3sZ-132">
          <mxGeometry width="50" height="50" relative="1" as="geometry">
            <mxPoint x="624" y="2560" as="sourcePoint" />
            <mxPoint x="894" y="2530" as="targetPoint" />
          </mxGeometry>
        </mxCell>
        <mxCell id="svAXorbb0JacJAwmI3sZ-132" value="器械特点" style="ellipse;whiteSpace=wrap;html=1;" vertex="1" parent="1">
          <mxGeometry x="364" y="2720" width="110" height="40" as="geometry" />
        </mxCell>
        <mxCell id="svAXorbb0JacJAwmI3sZ-133" value="规格参数" style="ellipse;whiteSpace=wrap;html=1;" vertex="1" parent="1">
          <mxGeometry x="164" y="2590" width="110" height="40" as="geometry" />
        </mxCell>
        <mxCell id="svAXorbb0JacJAwmI3sZ-134" value="器械类别ID" style="ellipse;whiteSpace=wrap;html=1;" vertex="1" parent="1">
          <mxGeometry x="164" y="2650" width="110" height="40" as="geometry" />
        </mxCell>
        <mxCell id="svAXorbb0JacJAwmI3sZ-135" value="" style="endArrow=none;html=1;rounded=0;exitX=0.5;exitY=0;exitDx=0;exitDy=0;" edge="1" parent="1" source="svAXorbb0JacJAwmI3sZ-122" target="svAXorbb0JacJAwmI3sZ-136">
          <mxGeometry width="50" height="50" relative="1" as="geometry">
            <mxPoint x="419" y="2630" as="sourcePoint" />
            <mxPoint x="333" y="2510" as="targetPoint" />
          </mxGeometry>
        </mxCell>
        <mxCell id="svAXorbb0JacJAwmI3sZ-136" value="详细描述" style="ellipse;whiteSpace=wrap;html=1;" vertex="1" parent="1">
          <mxGeometry x="474" y="2550" width="110" height="40" as="geometry" />
        </mxCell>
        <mxCell id="svAXorbb0JacJAwmI3sZ-137" value="" style="endArrow=none;html=1;rounded=0;exitX=0.5;exitY=0;exitDx=0;exitDy=0;" edge="1" parent="1" source="svAXorbb0JacJAwmI3sZ-122" target="svAXorbb0JacJAwmI3sZ-138">
          <mxGeometry width="50" height="50" relative="1" as="geometry">
            <mxPoint x="419" y="2630" as="sourcePoint" />
            <mxPoint x="253" y="2530" as="targetPoint" />
          </mxGeometry>
        </mxCell>
        <mxCell id="svAXorbb0JacJAwmI3sZ-138" value="器械名称" style="ellipse;whiteSpace=wrap;html=1;" vertex="1" parent="1">
          <mxGeometry x="244" y="2550" width="110" height="40" as="geometry" />
        </mxCell>
        <mxCell id="svAXorbb0JacJAwmI3sZ-139" value="" style="endArrow=none;html=1;rounded=0;exitX=0;exitY=0.5;exitDx=0;exitDy=0;entryX=1;entryY=0.5;entryDx=0;entryDy=0;" edge="1" parent="1" source="svAXorbb0JacJAwmI3sZ-122" target="svAXorbb0JacJAwmI3sZ-134">
          <mxGeometry width="50" height="50" relative="1" as="geometry">
            <mxPoint x="429" y="2640" as="sourcePoint" />
            <mxPoint x="284" y="2620" as="targetPoint" />
          </mxGeometry>
        </mxCell>
        <mxCell id="svAXorbb0JacJAwmI3sZ-140" value="" style="endArrow=none;html=1;rounded=0;exitX=1;exitY=0.5;exitDx=0;exitDy=0;entryX=0;entryY=0.5;entryDx=0;entryDy=0;" edge="1" parent="1" source="svAXorbb0JacJAwmI3sZ-122" target="svAXorbb0JacJAwmI3sZ-124">
          <mxGeometry width="50" height="50" relative="1" as="geometry">
            <mxPoint x="439" y="2650" as="sourcePoint" />
            <mxPoint x="294" y="2630" as="targetPoint" />
          </mxGeometry>
        </mxCell>
        <mxCell id="svAXorbb0JacJAwmI3sZ-141" value="" style="endArrow=none;html=1;rounded=0;exitX=0.5;exitY=1;exitDx=0;exitDy=0;entryX=0;entryY=0.5;entryDx=0;entryDy=0;" edge="1" parent="1" source="svAXorbb0JacJAwmI3sZ-122" target="svAXorbb0JacJAwmI3sZ-125">
          <mxGeometry width="50" height="50" relative="1" as="geometry">
            <mxPoint x="429" y="2680" as="sourcePoint" />
            <mxPoint x="429" y="2730" as="targetPoint" />
          </mxGeometry>
        </mxCell>
        <mxCell id="svAXorbb0JacJAwmI3sZ-142" value="" style="endArrow=none;html=1;rounded=0;exitX=0.5;exitY=1;exitDx=0;exitDy=0;entryX=0.5;entryY=0;entryDx=0;entryDy=0;" edge="1" parent="1" source="svAXorbb0JacJAwmI3sZ-122" target="svAXorbb0JacJAwmI3sZ-127">
          <mxGeometry width="50" height="50" relative="1" as="geometry">
            <mxPoint x="439" y="2690" as="sourcePoint" />
            <mxPoint x="439" y="2740" as="targetPoint" />
          </mxGeometry>
        </mxCell>
      </root>
    </mxGraphModel>
  </diagram>
  <diagram id="pUSIjOka6l-_nhCBTFnc" name="第 2 页">
    <mxGraphModel dx="1930" dy="657" grid="1" gridSize="10" guides="1" tooltips="1" connect="1" arrows="1" fold="1" page="1" pageScale="1" pageWidth="827" pageHeight="1169" math="0" shadow="0">
      <root>
        <mxCell id="0" />
        <mxCell id="1" parent="0" />
        <mxCell id="TsKX9oGN1Ei0qKly57jY-62" style="edgeStyle=orthogonalEdgeStyle;rounded=0;orthogonalLoop=1;jettySize=auto;html=1;exitX=0.5;exitY=1;exitDx=0;exitDy=0;entryX=0.5;entryY=0;entryDx=0;entryDy=0;fontFamily=Helvetica;fontSize=12;fontColor=default;resizable=1;endArrow=none;startFill=0;dashed=1;" edge="1" parent="1" source="TsKX9oGN1Ei0qKly57jY-3" target="TsKX9oGN1Ei0qKly57jY-15">
          <mxGeometry relative="1" as="geometry" />
        </mxCell>
        <mxCell id="TsKX9oGN1Ei0qKly57jY-3" value="&lt;font style=&quot;font-size: 22px;&quot;&gt;&amp;nbsp; &amp;nbsp;用户层&lt;/font&gt;" style="rounded=1;whiteSpace=wrap;html=1;strokeColor=default;align=left;verticalAlign=middle;fontFamily=Helvetica;fontSize=12;fontColor=default;resizable=1;fillColor=#BAE7C7;" vertex="1" parent="1">
          <mxGeometry x="-61" y="520" width="740" height="100" as="geometry" />
        </mxCell>
        <mxCell id="TsKX9oGN1Ei0qKly57jY-7" value="&lt;font style=&quot;font-size: 16px;&quot;&gt;会员用户&lt;/font&gt;" style="rounded=1;whiteSpace=wrap;html=1;strokeColor=default;align=center;verticalAlign=middle;fontFamily=Helvetica;fontSize=12;fontColor=default;resizable=1;fillColor=default;" vertex="1" parent="1">
          <mxGeometry x="130" y="540" width="160" height="60" as="geometry" />
        </mxCell>
        <mxCell id="TsKX9oGN1Ei0qKly57jY-10" value="&lt;font style=&quot;font-size: 16px;&quot;&gt;管理员&lt;/font&gt;" style="rounded=1;whiteSpace=wrap;html=1;strokeColor=default;align=center;verticalAlign=middle;fontFamily=Helvetica;fontSize=12;fontColor=default;resizable=1;fillColor=default;horizontal=1;" vertex="1" parent="1">
          <mxGeometry x="400" y="540" width="160" height="60" as="geometry" />
        </mxCell>
        <mxCell id="TsKX9oGN1Ei0qKly57jY-14" value="&lt;font style=&quot;font-size: 24px;&quot;&gt;&lt;b&gt;健身房系统架构图&lt;/b&gt;&lt;/font&gt;" style="text;html=1;align=center;verticalAlign=middle;resizable=1;points=[];autosize=1;strokeColor=none;fillColor=none;fontFamily=Helvetica;fontSize=12;fontColor=default;" vertex="1" parent="1">
          <mxGeometry x="160" y="460" width="220" height="40" as="geometry" />
        </mxCell>
        <mxCell id="TsKX9oGN1Ei0qKly57jY-56" style="edgeStyle=orthogonalEdgeStyle;rounded=0;orthogonalLoop=1;jettySize=auto;html=1;entryX=0.5;entryY=0;entryDx=0;entryDy=0;fontFamily=Helvetica;fontSize=12;fontColor=default;resizable=1;dashed=1;endArrow=none;startFill=0;" edge="1" parent="1" source="TsKX9oGN1Ei0qKly57jY-15" target="TsKX9oGN1Ei0qKly57jY-20">
          <mxGeometry relative="1" as="geometry" />
        </mxCell>
        <mxCell id="TsKX9oGN1Ei0qKly57jY-15" value="&lt;font style=&quot;font-size: 22px;&quot;&gt;&amp;nbsp; 接入层&lt;/font&gt;" style="rounded=1;whiteSpace=wrap;html=1;strokeColor=default;align=left;verticalAlign=middle;fontFamily=Helvetica;fontSize=12;fontColor=default;resizable=1;fillColor=#FFD8B1;" vertex="1" parent="1">
          <mxGeometry x="-61" y="660" width="740" height="100" as="geometry" />
        </mxCell>
        <mxCell id="TsKX9oGN1Ei0qKly57jY-16" value="&lt;font style=&quot;font-size: 16px;&quot;&gt;Ant Design Pro/Shadcn 前端框架&lt;/font&gt;" style="rounded=1;whiteSpace=wrap;html=1;strokeColor=default;align=center;verticalAlign=middle;fontFamily=Helvetica;fontSize=12;fontColor=default;resizable=1;fillColor=default;" vertex="1" parent="1">
          <mxGeometry x="70" y="680" width="370" height="60" as="geometry" />
        </mxCell>
        <mxCell id="TsKX9oGN1Ei0qKly57jY-19" value="&lt;font style=&quot;font-size: 16px;&quot;&gt;Nginx代理&lt;/font&gt;" style="rounded=1;whiteSpace=wrap;html=1;strokeColor=default;align=center;verticalAlign=middle;fontFamily=Helvetica;fontSize=12;fontColor=default;resizable=1;fillColor=default;horizontal=1;" vertex="1" parent="1">
          <mxGeometry x="480" y="680" width="160" height="60" as="geometry" />
        </mxCell>
        <mxCell id="TsKX9oGN1Ei0qKly57jY-73" style="edgeStyle=orthogonalEdgeStyle;rounded=0;orthogonalLoop=1;jettySize=auto;html=1;exitX=0.5;exitY=1;exitDx=0;exitDy=0;entryX=0.5;entryY=0;entryDx=0;entryDy=0;fontFamily=Helvetica;fontSize=12;fontColor=default;resizable=1;endArrow=none;startFill=0;dashed=1;" edge="1" parent="1" source="TsKX9oGN1Ei0qKly57jY-20" target="TsKX9oGN1Ei0qKly57jY-29">
          <mxGeometry relative="1" as="geometry" />
        </mxCell>
        <mxCell id="TsKX9oGN1Ei0qKly57jY-20" value="&lt;font style=&quot;font-size: 22px;&quot;&gt;&amp;nbsp; 业务层&lt;/font&gt;" style="rounded=1;whiteSpace=wrap;html=1;strokeColor=default;align=left;verticalAlign=middle;fontFamily=Helvetica;fontSize=12;fontColor=default;resizable=1;fillColor=#BAE7C7;" vertex="1" parent="1">
          <mxGeometry x="-61" y="800" width="740" height="130" as="geometry" />
        </mxCell>
        <mxCell id="TsKX9oGN1Ei0qKly57jY-21" value="&lt;font style=&quot;font-size: 16px;&quot;&gt;会员模块&lt;/font&gt;" style="rounded=1;whiteSpace=wrap;html=1;strokeColor=default;align=center;verticalAlign=middle;fontFamily=Helvetica;fontSize=12;fontColor=default;resizable=1;fillColor=default;" vertex="1" parent="1">
          <mxGeometry x="40" y="830" width="110" height="60" as="geometry" />
        </mxCell>
        <mxCell id="TsKX9oGN1Ei0qKly57jY-22" value="&lt;font style=&quot;font-size: 16px;&quot;&gt;课程模块&lt;/font&gt;" style="rounded=1;whiteSpace=wrap;html=1;strokeColor=default;align=center;verticalAlign=middle;fontFamily=Helvetica;fontSize=12;fontColor=default;resizable=1;fillColor=default;" vertex="1" parent="1">
          <mxGeometry x="160" y="830" width="110" height="60" as="geometry" />
        </mxCell>
        <mxCell id="TsKX9oGN1Ei0qKly57jY-23" value="&lt;font style=&quot;font-size: 16px;&quot;&gt;教练模块&lt;/font&gt;" style="rounded=1;whiteSpace=wrap;html=1;strokeColor=default;align=center;verticalAlign=middle;fontFamily=Helvetica;fontSize=12;fontColor=default;resizable=1;fillColor=default;" vertex="1" parent="1">
          <mxGeometry x="280" y="830" width="110" height="60" as="geometry" />
        </mxCell>
        <mxCell id="TsKX9oGN1Ei0qKly57jY-24" value="&lt;font style=&quot;font-size: 16px;&quot;&gt;器械模块&lt;/font&gt;" style="rounded=1;whiteSpace=wrap;html=1;strokeColor=default;align=center;verticalAlign=middle;fontFamily=Helvetica;fontSize=12;fontColor=default;resizable=1;fillColor=default;" vertex="1" parent="1">
          <mxGeometry x="400" y="830" width="110" height="60" as="geometry" />
        </mxCell>
        <mxCell id="TsKX9oGN1Ei0qKly57jY-25" value="&lt;font style=&quot;font-size: 16px;&quot;&gt;商品模块&lt;/font&gt;" style="rounded=1;whiteSpace=wrap;html=1;strokeColor=default;align=center;verticalAlign=middle;fontFamily=Helvetica;fontSize=12;fontColor=default;resizable=1;fillColor=default;" vertex="1" parent="1">
          <mxGeometry x="520" y="830" width="110" height="60" as="geometry" />
        </mxCell>
        <mxCell id="TsKX9oGN1Ei0qKly57jY-27" value="课程预约管理" style="rounded=0;whiteSpace=wrap;html=1;strokeColor=default;align=center;verticalAlign=top;fontFamily=Helvetica;fontSize=12;fontColor=default;resizable=1;fillColor=default;" vertex="1" parent="1">
          <mxGeometry x="70" y="900" width="200" height="22" as="geometry" />
        </mxCell>
        <mxCell id="TsKX9oGN1Ei0qKly57jY-28" value="商品交易管理" style="rounded=0;whiteSpace=wrap;html=1;strokeColor=default;align=center;verticalAlign=top;fontFamily=Helvetica;fontSize=12;fontColor=default;resizable=1;fillColor=default;" vertex="1" parent="1">
          <mxGeometry x="370" y="900" width="200" height="22" as="geometry" />
        </mxCell>
        <mxCell id="TsKX9oGN1Ei0qKly57jY-70" value="" style="edgeStyle=orthogonalEdgeStyle;rounded=0;orthogonalLoop=1;jettySize=auto;html=1;fontFamily=Helvetica;fontSize=12;fontColor=default;resizable=1;dashed=1;endArrow=none;startFill=0;" edge="1" parent="1" source="TsKX9oGN1Ei0qKly57jY-29" target="TsKX9oGN1Ei0qKly57jY-42">
          <mxGeometry relative="1" as="geometry" />
        </mxCell>
        <mxCell id="TsKX9oGN1Ei0qKly57jY-29" value="" style="rounded=1;whiteSpace=wrap;html=1;align=right;verticalAlign=bottom;fontFamily=Helvetica;fontSize=12;resizable=1;labelPosition=left;verticalLabelPosition=top;strokeWidth=1;fillColor=#FFE7B1;strokeColor=default;" vertex="1" parent="1">
          <mxGeometry x="-61" y="970" width="740" height="280" as="geometry" />
        </mxCell>
        <mxCell id="TsKX9oGN1Ei0qKly57jY-30" value="&lt;font style=&quot;font-size: 16px;&quot;&gt;&lt;b&gt;API接口服务&lt;/b&gt;&lt;/font&gt;" style="rounded=1;whiteSpace=wrap;html=1;strokeColor=default;align=center;verticalAlign=top;fontFamily=Helvetica;fontSize=12;fontColor=default;resizable=1;fillColor=light-dark(#DEECBF,#000000);fillStyle=auto;dashed=1;" vertex="1" parent="1">
          <mxGeometry x="68" y="990" width="600" height="120" as="geometry" />
        </mxCell>
        <mxCell id="TsKX9oGN1Ei0qKly57jY-31" value="&lt;font style=&quot;font-size: 14px;&quot;&gt;会员管理API&lt;/font&gt;" style="rounded=1;whiteSpace=wrap;html=1;strokeColor=default;align=center;verticalAlign=middle;fontFamily=Helvetica;fontSize=12;fontColor=default;resizable=1;fillColor=default;" vertex="1" parent="1">
          <mxGeometry x="90" y="1030" width="160" height="70" as="geometry" />
        </mxCell>
        <mxCell id="TsKX9oGN1Ei0qKly57jY-32" value="&lt;font style=&quot;font-size: 14px;&quot;&gt;课程管理API&lt;/font&gt;" style="rounded=1;whiteSpace=wrap;html=1;strokeColor=default;align=center;verticalAlign=middle;fontFamily=Helvetica;fontSize=12;fontColor=default;resizable=1;fillColor=default;" vertex="1" parent="1">
          <mxGeometry x="270" y="1030" width="160" height="70" as="geometry" />
        </mxCell>
        <mxCell id="TsKX9oGN1Ei0qKly57jY-33" value="&lt;font style=&quot;font-size: 14px;&quot;&gt;器械及商品API&lt;/font&gt;" style="rounded=1;whiteSpace=wrap;html=1;strokeColor=default;align=center;verticalAlign=middle;fontFamily=Helvetica;fontSize=12;fontColor=default;resizable=1;fillColor=default;" vertex="1" parent="1">
          <mxGeometry x="450" y="1030" width="160" height="70" as="geometry" />
        </mxCell>
        <mxCell id="TsKX9oGN1Ei0qKly57jY-35" value="&lt;span style=&quot;font-size: 16px;&quot;&gt;&lt;b&gt;核心服务&lt;/b&gt;&lt;/span&gt;" style="rounded=1;whiteSpace=wrap;html=1;strokeColor=default;align=center;verticalAlign=top;fontFamily=Helvetica;fontSize=12;fontColor=default;resizable=1;fillColor=light-dark(#DEE0DD,#000000);fillStyle=auto;dashed=1;" vertex="1" parent="1">
          <mxGeometry x="68" y="1120" width="600" height="120" as="geometry" />
        </mxCell>
        <mxCell id="TsKX9oGN1Ei0qKly57jY-36" value="&lt;font style=&quot;font-size: 14px;&quot;&gt;安全认证服务&lt;/font&gt;" style="rounded=1;whiteSpace=wrap;html=1;strokeColor=default;align=center;verticalAlign=middle;fontFamily=Helvetica;fontSize=12;fontColor=default;resizable=1;fillColor=default;" vertex="1" parent="1">
          <mxGeometry x="90" y="1160" width="160" height="70" as="geometry" />
        </mxCell>
        <mxCell id="TsKX9oGN1Ei0qKly57jY-37" value="&lt;font style=&quot;font-size: 14px;&quot;&gt;数据查询服务&lt;/font&gt;" style="rounded=1;whiteSpace=wrap;html=1;strokeColor=default;align=center;verticalAlign=middle;fontFamily=Helvetica;fontSize=12;fontColor=default;resizable=1;fillColor=default;" vertex="1" parent="1">
          <mxGeometry x="270" y="1160" width="160" height="70" as="geometry" />
        </mxCell>
        <mxCell id="TsKX9oGN1Ei0qKly57jY-38" value="&lt;font style=&quot;font-size: 14px;&quot;&gt;日志服务&lt;/font&gt;" style="rounded=1;whiteSpace=wrap;html=1;strokeColor=default;align=center;verticalAlign=middle;fontFamily=Helvetica;fontSize=12;fontColor=default;resizable=1;fillColor=default;" vertex="1" parent="1">
          <mxGeometry x="450" y="1160" width="160" height="70" as="geometry" />
        </mxCell>
        <mxCell id="TsKX9oGN1Ei0qKly57jY-39" value="&lt;font style=&quot;font-size: 14px;&quot;&gt;跨域资源管理&lt;/font&gt;" style="rounded=1;whiteSpace=wrap;html=1;strokeColor=default;align=center;verticalAlign=middle;fontFamily=Helvetica;fontSize=12;fontColor=default;resizable=1;fillColor=#D1FFD1;direction=east;flipH=0;horizontal=1;rotation=0;labelPosition=center;verticalLabelPosition=middle;textDirection=vertical-lr;" vertex="1" parent="1">
          <mxGeometry x="-40" y="1050" width="90" height="140" as="geometry" />
        </mxCell>
        <mxCell id="TsKX9oGN1Ei0qKly57jY-40" value="服务层" style="text;html=1;align=center;verticalAlign=middle;whiteSpace=wrap;rounded=0;fontFamily=Helvetica;fontSize=22;fontColor=default;resizable=1;fontStyle=1" vertex="1" parent="1">
          <mxGeometry x="-40" y="1000" width="70" height="30" as="geometry" />
        </mxCell>
        <mxCell id="TsKX9oGN1Ei0qKly57jY-75" style="edgeStyle=orthogonalEdgeStyle;rounded=0;orthogonalLoop=1;jettySize=auto;html=1;exitX=0.5;exitY=1;exitDx=0;exitDy=0;entryX=0.5;entryY=0;entryDx=0;entryDy=0;fontFamily=Helvetica;fontSize=12;fontColor=default;resizable=1;endArrow=none;endFill=1;startFill=0;dashed=1;" edge="1" parent="1" source="TsKX9oGN1Ei0qKly57jY-42" target="TsKX9oGN1Ei0qKly57jY-43">
          <mxGeometry relative="1" as="geometry" />
        </mxCell>
        <mxCell id="TsKX9oGN1Ei0qKly57jY-42" value="&lt;font style=&quot;font-size: 22px;&quot;&gt;&amp;nbsp; 持久层&lt;/font&gt;" style="rounded=1;whiteSpace=wrap;html=1;strokeColor=default;align=left;verticalAlign=middle;fontFamily=Helvetica;fontSize=12;fontColor=default;resizable=1;fillColor=#C7D1FF;" vertex="1" parent="1">
          <mxGeometry x="-61" y="1290" width="740" height="120" as="geometry" />
        </mxCell>
        <mxCell id="TsKX9oGN1Ei0qKly57jY-43" value="&lt;font style=&quot;font-size: 22px;&quot;&gt;&amp;nbsp; 基础层&lt;/font&gt;" style="rounded=1;whiteSpace=wrap;html=1;strokeColor=default;align=left;verticalAlign=middle;fontFamily=Helvetica;fontSize=12;fontColor=default;resizable=1;fillColor=#B1D4FF;gradientColor=none;" vertex="1" parent="1">
          <mxGeometry x="-61" y="1450" width="740" height="120" as="geometry" />
        </mxCell>
        <mxCell id="TsKX9oGN1Ei0qKly57jY-44" value="" style="rounded=1;whiteSpace=wrap;html=1;strokeColor=default;align=center;verticalAlign=middle;fontFamily=Helvetica;fontSize=12;fontColor=default;resizable=1;fillColor=default;" vertex="1" parent="1">
          <mxGeometry x="100" y="1305" width="130" height="90" as="geometry" />
        </mxCell>
        <mxCell id="TsKX9oGN1Ei0qKly57jY-45" value="&lt;font style=&quot;font-size: 14px;&quot;&gt;MySQL&lt;/font&gt;" style="ellipse;whiteSpace=wrap;html=1;strokeColor=default;align=center;verticalAlign=top;fontFamily=Helvetica;fontSize=12;fontColor=default;resizable=1;fillColor=#F5F5F5;" vertex="1" parent="1">
          <mxGeometry x="120" y="1320" width="90" height="30" as="geometry" />
        </mxCell>
        <mxCell id="TsKX9oGN1Ei0qKly57jY-46" value="&lt;font style=&quot;font-size: 14px;&quot;&gt;关系型数据库&lt;/font&gt;" style="text;html=1;align=center;verticalAlign=middle;whiteSpace=wrap;rounded=0;fontFamily=Helvetica;fontSize=12;fontColor=default;resizable=1;" vertex="1" parent="1">
          <mxGeometry x="120" y="1360" width="90" height="30" as="geometry" />
        </mxCell>
        <mxCell id="TsKX9oGN1Ei0qKly57jY-47" value="" style="rounded=1;whiteSpace=wrap;html=1;strokeColor=default;align=center;verticalAlign=middle;fontFamily=Helvetica;fontSize=12;fontColor=default;resizable=1;fillColor=default;" vertex="1" parent="1">
          <mxGeometry x="380" y="1305" width="130" height="90" as="geometry" />
        </mxCell>
        <mxCell id="TsKX9oGN1Ei0qKly57jY-48" value="&lt;span style=&quot;font-size: 14px;&quot;&gt;又拍云图床&lt;/span&gt;" style="ellipse;whiteSpace=wrap;html=1;strokeColor=default;align=center;verticalAlign=top;fontFamily=Helvetica;fontSize=12;fontColor=default;resizable=1;fillColor=#F5F5F5;" vertex="1" parent="1">
          <mxGeometry x="400" y="1320" width="90" height="30" as="geometry" />
        </mxCell>
        <mxCell id="TsKX9oGN1Ei0qKly57jY-49" value="&lt;font style=&quot;font-size: 14px;&quot;&gt;图片存储&lt;/font&gt;" style="text;html=1;align=center;verticalAlign=middle;whiteSpace=wrap;rounded=0;fontFamily=Helvetica;fontSize=12;fontColor=default;resizable=1;" vertex="1" parent="1">
          <mxGeometry x="400" y="1360" width="90" height="30" as="geometry" />
        </mxCell>
        <mxCell id="TsKX9oGN1Ei0qKly57jY-50" value="&lt;font style=&quot;font-size: 16px;&quot;&gt;Docker&lt;/font&gt;" style="rounded=1;whiteSpace=wrap;html=1;strokeColor=default;align=center;verticalAlign=middle;fontFamily=Helvetica;fontSize=12;fontColor=default;resizable=1;fillColor=default;" vertex="1" parent="1">
          <mxGeometry x="50" y="1480" width="160" height="60" as="geometry" />
        </mxCell>
        <mxCell id="TsKX9oGN1Ei0qKly57jY-51" value="&lt;font style=&quot;font-size: 16px;&quot;&gt;Linux服务器&lt;/font&gt;" style="rounded=1;whiteSpace=wrap;html=1;strokeColor=default;align=center;verticalAlign=middle;fontFamily=Helvetica;fontSize=12;fontColor=default;resizable=1;fillColor=default;" vertex="1" parent="1">
          <mxGeometry x="250" y="1480" width="160" height="60" as="geometry" />
        </mxCell>
        <mxCell id="TsKX9oGN1Ei0qKly57jY-52" value="&lt;font style=&quot;font-size: 16px;&quot;&gt;网络&lt;/font&gt;" style="rounded=1;whiteSpace=wrap;html=1;strokeColor=default;align=center;verticalAlign=middle;fontFamily=Helvetica;fontSize=12;fontColor=default;resizable=1;fillColor=default;" vertex="1" parent="1">
          <mxGeometry x="450" y="1480" width="160" height="60" as="geometry" />
        </mxCell>
      </root>
    </mxGraphModel>
  </diagram>
</mxfile>
